# Blender v2.76 (sub 0) OBJ File: ''
# www.blender.org
mtllib tibia_r_osim.mtl
o tibia_r_osim_Plane.001
v 0.011515 -0.126920 0.010126
v 0.019262 -0.126920 0.013129
v 0.025725 -0.126920 0.009159
v 0.034010 -0.126920 0.004952
v 0.034010 -0.126920 -0.005948
v 0.034010 -0.126920 -0.011314
v 0.027460 -0.126920 -0.014405
v 0.018611 -0.126920 -0.018690
v 0.010216 -0.126920 -0.016742
v 0.006000 -0.126920 -0.015991
v 0.003299 -0.126920 -0.017465
v -0.004630 -0.126920 -0.016253
v -0.004642 -0.126920 -0.016249
v -0.004649 -0.126920 -0.016242
v -0.004674 -0.126920 -0.016216
v -0.008309 -0.126920 -0.015094
v -0.009393 -0.126920 -0.010574
v -0.010203 -0.126920 -0.009865
v -0.010431 -0.126920 -0.007952
v -0.010431 -0.126920 0.000016
v -0.010431 -0.126920 0.001591
v -0.003925 -0.126920 0.006668
v -0.002938 -0.126920 0.007813
v 0.004612 -0.126920 0.008152
v 0.006000 -0.126920 0.008515
v 0.006000 -0.133499 0.007785
v 0.017092 -0.186161 0.010460
v -0.002566 -0.134183 0.007355
v 0.006000 -0.235059 0.005866
v 0.032262 -0.137261 0.004445
v 0.014837 -0.254550 0.007688
v 0.024092 -0.204625 0.002072
v -0.010049 -0.134867 0.001480
v -0.001935 -0.202403 0.006578
v 0.006000 -0.304476 0.006689
v 0.024092 -0.204625 -0.008433
v 0.032262 -0.137261 -0.010806
v 0.014927 -0.320036 0.007798
v 0.019423 -0.271990 0.000716
v 0.019423 -0.271990 -0.007078
v -0.010049 -0.134867 -0.007841
v -0.010049 -0.169746 0.001480
v -0.000673 -0.287377 0.005027
v 0.006641 -0.368004 0.010593
v 0.015558 -0.169404 -0.014935
v 0.013754 -0.253356 -0.012718
v 0.018624 -0.365173 0.012346
v 0.021174 -0.340039 0.001225
v 0.021174 -0.340039 -0.007586
v 0.014566 -0.320720 -0.013717
v -0.010049 -0.169746 -0.007841
v -0.007569 -0.220015 0.000760
v -0.003919 -0.353205 0.009019
v 0.006000 -0.390306 0.020945
v 0.006000 -0.134183 -0.015243
v 0.006000 -0.234718 -0.014147
v 0.006000 -0.301399 -0.014970
v -0.007569 -0.220015 -0.007121
v -0.005088 -0.270283 0.000040
v 0.020879 -0.396121 0.015118
v 0.025842 -0.386886 0.002580
v 0.025842 -0.386886 -0.008942
v 0.017812 -0.378509 -0.017707
v 0.006000 -0.370131 -0.020452
v -0.005088 -0.270283 -0.006401
v -0.010632 -0.338330 0.001648
v -0.007256 -0.381415 0.013121
v 0.006000 -0.405352 0.023414
v -0.002747 -0.286523 -0.013938
v -0.001394 -0.202231 -0.012274
v -0.003198 -0.336963 -0.014492
v -0.008879 -0.388938 -0.021478
v 0.020788 -0.406891 0.015007
v 0.031970 -0.398514 0.004361
v 0.031970 -0.398514 -0.010722
v 0.022051 -0.392871 -0.022920
v 0.006000 -0.387229 -0.027580
v -0.010321 -0.400052 -0.023253
v -0.010632 -0.338330 -0.008009
v -0.011216 -0.372526 0.001817
v -0.011944 -0.406550 0.018889
v 0.006000 -0.415269 0.017380
v -0.011216 -0.372526 -0.008178
v -0.012391 -0.377167 -0.013907
v -0.020846 -0.412876 -0.010974
v 0.018263 -0.405010 0.011902
v 0.028176 -0.406719 0.003259
v 0.028176 -0.406719 -0.009620
v 0.019616 -0.403472 -0.019927
v 0.006000 -0.400223 -0.023742
v -0.005542 -0.406550 -0.017376
v -0.023764 -0.407746 -0.011821
v -0.009466 -0.412876 -0.007671
v -0.023764 -0.407746 0.005459
v -0.009058 -0.414073 0.015340
v 0.006000 -0.403302 0.013269
v -0.020846 -0.412876 0.004614
v -0.009466 -0.412876 0.001310
v 0.013214 -0.404839 0.005692
v 0.016505 -0.409115 -0.000131
v 0.016505 -0.409115 -0.006230
v 0.013574 -0.409115 -0.012495
v 0.006000 -0.409115 -0.016339
v -0.002870 -0.410539 -0.013503
v -0.006558 -0.412772 -0.010193
v -0.006558 -0.412772 -0.003417
v -0.004190 -0.408089 0.009352
v 0.006000 -0.400565 0.008882
v -0.001574 -0.410312 0.006135
v 0.006000 -0.403984 -0.003181
vn 0.000000 1.000000 0.000000
vn -0.199500 0.664300 0.720400
vn -0.201500 -0.046300 0.978400
vn -0.249900 0.678600 0.690700
vn -0.103900 0.648500 0.754100
vn 0.185600 -0.063400 0.980600
vn 0.079300 0.601200 0.795200
vn -0.353500 0.598000 0.719300
vn -0.350600 -0.037800 0.935800
vn -0.065800 -0.007000 0.997800
vn 0.861700 -0.126300 0.491500
vn 0.374000 0.668900 0.642300
vn -0.510500 0.661500 0.549400
vn 0.329700 -0.028800 0.943600
vn 0.917800 -0.085500 0.387700
vn 0.722200 0.542300 0.429300
vn -0.718500 0.601800 0.348600
vn -0.897000 -0.028100 0.441100
vn -0.294000 -0.017000 0.955700
vn -0.107400 0.031600 0.993700
vn 0.862900 -0.078100 -0.499200
vn 0.833400 -0.148400 -0.532400
vn 0.763800 0.645500 0.000000
vn -0.723800 0.689900 0.000000
vn 0.410600 0.050900 0.910400
vn 0.954300 -0.015000 0.298500
vn 0.926200 -0.007200 -0.376900
vn 0.717400 0.540500 -0.439500
vn -0.735300 0.676300 -0.043900
vn -0.992100 -0.018100 -0.124100
vn -0.878700 -0.015400 0.477000
vn -0.453500 0.026700 0.890800
vn 0.059500 0.308000 0.949500
vn 0.188800 -0.049300 -0.980700
vn 0.415700 -0.020100 -0.909300
vn 0.323300 0.664800 -0.673400
vn -0.702800 0.579400 -0.412700
vn 0.488200 0.181100 0.853700
vn 0.963500 0.086600 0.253100
vn 0.943600 0.074700 -0.322600
vn 0.098700 0.602800 -0.791700
vn 0.528000 0.052200 -0.847600
vn -0.711100 0.598200 -0.369500
vn -0.929600 -0.038000 -0.366600
vn -0.954200 -0.051300 0.294700
vn -0.302000 0.146200 0.942000
vn -0.018200 0.188500 0.981900
vn 0.134000 -0.083300 -0.987500
vn -0.155300 0.671300 -0.724800
vn 0.077100 -0.016200 -0.996900
vn 0.041600 0.023700 -0.998800
vn -0.570500 0.575500 -0.585900
vn -0.926000 -0.051000 -0.374000
vn -0.949400 -0.008800 0.314000
vn 0.617500 0.115800 0.778000
vn 0.928100 0.269400 0.257100
vn 0.911500 0.330900 -0.244100
vn 0.619200 0.255800 -0.742400
vn 0.133600 0.582500 -0.801700
vn 0.114700 0.157800 -0.980800
vn -0.438600 0.607000 -0.662700
vn -0.520300 0.690800 -0.502000
vn -0.994000 0.042800 0.100100
vn -0.914600 0.070700 0.398100
vn -0.640500 0.213500 0.737700
vn 0.086900 -0.156600 0.983800
vn -0.422100 0.019000 -0.906300
vn -0.449100 -0.019600 -0.893200
vn 0.144500 0.611800 -0.777600
vn -0.676500 0.097200 -0.729900
vn -0.466500 0.179300 -0.866100
vn -0.410500 0.636900 -0.652500
vn 0.554000 -0.710500 0.433900
vn 0.941700 0.042400 0.333700
vn 0.943300 -0.012700 -0.331600
vn 0.586000 0.062000 -0.807900
vn -0.029700 0.132800 -0.990700
vn -0.179800 0.664900 -0.724900
vn -0.396500 -0.249100 -0.883600
vn -0.915000 0.035800 -0.401700
vn -0.966100 0.148300 0.211200
vn -0.522800 -0.111500 0.845100
vn 0.135700 -0.990700 -0.007400
vn -0.976400 0.212600 -0.036800
vn -0.893200 0.255600 -0.369800
vn -0.423700 -0.789200 -0.444500
vn -0.106100 -0.952100 -0.286600
vn 0.601800 -0.771800 0.205200
vn 0.609700 -0.740900 -0.281500
vn 0.351400 -0.577200 -0.737100
vn -0.071200 -0.424900 -0.902400
vn -0.130600 -0.685400 -0.716400
vn -0.847100 -0.149900 -0.509800
vn -0.021400 -0.969400 -0.244500
vn -0.931000 -0.093400 0.352700
vn -0.088500 -0.962800 0.255100
vn 0.041100 -0.717800 -0.695000
vn -0.495800 -0.831900 0.249100
vn 0.098900 -0.973500 0.205900
vn -0.405100 -0.890500 0.207100
vn -0.166900 -0.972200 0.164400
vn -0.076100 -0.996900 0.019500
vn 0.022100 -0.992600 -0.119100
vn 0.025200 -0.938100 -0.345400
vn 0.156400 -0.916500 -0.368200
vn 0.017100 -0.936000 -0.351600
vn 0.305500 -0.952100 0.006500
vn 0.410400 -0.908800 0.074600
vn 0.061800 -0.989800 -0.127900
vn 0.412500 -0.827400 0.381000
vn 0.108900 -0.973000 0.203500
usemtl None
s off
f 1//1 2//1 3//1 4//1 5//1 6//1 7//1 8//1 9//1 10//1 11//1 12//1 13//1 14//1 15//1 16//1 17//1 18//1 19//1 20//1 21//1 22//1 23//1 24//1 25//1
s 1
f 25//2 26//3 1//4
f 24//5 26//3 25//2
f 1//4 26//3 27//6 2//7
f 23//8 28//9 26//3 24//5
f 26//3 29//10 27//6
f 2//7 27//6 30//11 3//12
f 22//13 28//9 23//8
f 28//9 29//10 26//3
f 29//10 31//14 27//6
f 27//6 32//15 30//11
f 3//12 30//11 4//16
f 21//17 33//18 28//9 22//13
f 28//9 34//19 29//10
f 29//10 35//20 31//14
f 27//6 31//14 32//15
f 30//11 32//15 36//21
f 4//16 30//11 37//22 5//23
f 20//24 33//18 21//17
f 33//18 34//19 28//9
f 34//19 35//20 29//10
f 35//20 38//25 31//14
f 31//14 39//26 32//15
f 30//11 36//21 37//22
f 32//15 40//27 36//21
f 5//23 37//22 6//28
f 19//29 41//30 33//18 20//24
f 33//18 42//31 34//19
f 34//19 43//32 35//20
f 35//20 44//33 38//25
f 31//14 38//25 39//26
f 32//15 39//26 40//27
f 37//22 36//21 45//34
f 36//21 40//27 46//35
f 6//28 37//22 7//36
f 18//37 41//30 19//29
f 41//30 42//31 33//18
f 42//31 43//32 34//19
f 43//32 44//33 35//20
f 44//33 47//38 38//25
f 38//25 48//39 39//26
f 39//26 49//40 40//27
f 7//36 37//22 45//34 8//41
f 36//21 46//35 45//34
f 40//27 50//42 46//35
f 17//43 41//30 18//37
f 41//30 51//44 42//31
f 42//31 52//45 43//32
f 43//32 53//46 44//33
f 44//33 54//47 47//38
f 38//25 47//38 48//39
f 39//26 48//39 49//40
f 40//27 49//40 50//42
f 8//41 45//34 55//48 9//49
f 45//34 46//35 56//50
f 46//35 50//42 57//51
f 16//52 51//44 41//30 17//43
f 42//31 51//44 58//53
f 42//31 58//53 52//45
f 52//45 59//54 43//32
f 59//54 53//46 43//32
f 53//46 54//47 44//33
f 54//47 60//55 47//38
f 47//38 61//56 48//39
f 48//39 62//57 49//40
f 49//40 63//58 50//42
f 45//34 56//50 55//48
f 9//49 55//48 10//59
f 46//35 57//51 56//50
f 50//42 64//60 57//51
f 15//61 51//44 16//52
f 14//62 58//53 51//44 15//61
f 52//45 58//53 65//63
f 52//45 65//63 59//54
f 59//54 66//64 53//46
f 53//46 67//65 54//47
f 54//47 68//66 60//55
f 47//38 60//55 61//56
f 48//39 61//56 62//57
f 49//40 62//57 63//58
f 50//42 63//58 64//60
f 55//48 56//50 69//67
f 10//59 55//48 70//68 11//69
f 56//50 57//51 71//70
f 57//51 64//60 72//71
f 13//72 65//63 58//53 14//62
f 65//63 66//64 59//54
f 66//64 67//65 53//46
f 67//65 68//66 54//47
f 68//66 73//73 60//55
f 60//55 74//74 61//56
f 61//56 75//75 62//57
f 62//57 76//76 63//58
f 63//58 77//77 64//60
f 55//48 69//67 70//68
f 56//50 71//70 69//67
f 11//69 70//68 12//78
f 57//51 72//71 71//70
f 64//60 78//79 72//71
f 12//78 70//68 65//63 13//72
f 65//63 79//80 66//64
f 66//64 80//81 67//65
f 67//65 81//82 68//66
f 68//66 82//83 73//73
f 60//55 73//73 74//74
f 61//56 74//74 75//75
f 62//57 75//75 76//76
f 63//58 76//76 77//77
f 64//60 77//77 78//79
f 70//68 69//67 79//80
f 69//67 71//70 83//84
f 72//71 84//85 71//70
f 72//71 78//79 85//86
f 70//68 79//80 65//63
f 79//80 80//81 66//64
f 80//81 81//82 67//65
f 81//82 82//83 68//66
f 82//83 86//87 73//73
f 73//73 87//88 74//74
f 74//74 88//89 75//75
f 75//75 89//90 76//76
f 76//76 90//91 77//77
f 77//77 91//92 78//79
f 69//67 83//84 79//80
f 83//84 71//70 84//85
f 72//71 92//93 84//85
f 72//71 85//86 92//93
f 78//79 93//94 85//86
f 79//80 83//84 80//81
f 80//81 94//95 81//82
f 81//82 95//96 82//83
f 82//83 96//97 86//87
f 73//73 86//87 87//88
f 74//74 87//88 88//89
f 75//75 88//89 89//90
f 76//76 89//90 90//91
f 77//77 90//91 91//92
f 78//79 91//92 93//94
f 92//93 83//84 84//85
f 92//93 85//86 97//98
f 85//86 93//94 98//99
f 83//84 94//95 80//81
f 94//95 95//96 81//82
f 95//96 96//97 82//83
f 96//97 99//100 86//87
f 86//87 100//101 87//88
f 87//88 101//102 88//89
f 88//89 102//103 89//90
f 89//90 103//104 90//91
f 90//91 104//105 91//92
f 91//92 105//106 93//94
f 83//84 92//93 94//95
f 92//93 97//98 94//95
f 85//86 98//99 97//98
f 93//94 106//107 98//99
f 94//95 97//98 95//96
f 95//96 107//108 96//97
f 96//97 108//109 99//100
f 86//87 99//100 100//101
f 87//88 100//101 101//102
f 88//89 101//102 102//103
f 89//90 102//103 103//104
f 90//91 103//104 104//105
f 91//92 104//105 105//106
f 93//94 105//106 106//107
f 97//98 98//99 107//108
f 98//99 106//107 109//110
f 97//98 107//108 95//96
f 107//108 108//109 96//97
f 108//109 110//111 99//100
f 99//100 110//111 100//101
f 100//101 110//111 101//102
f 101//102 110//111 102//103
f 102//103 110//111 103//104
f 103//104 110//111 104//105
f 104//105 110//111 105//106
f 105//106 110//111 106//107
f 98//99 109//110 107//108
f 106//107 110//111 109//110
f 107//108 109//110 108//109
f 109//110 110//111 108//109
